<?xml version="1.0" encoding="UTF-8"?>
<svg id="LOGO_CIRCUITOS" data-name="LOGO CIRCUITOS" xmlns="http://www.w3.org/2000/svg" viewBox="0 0 500 173.83">
  <defs>
    <style>
      .cls-1 {
        fill: #fff;
      }
    </style>
  </defs>
  <g>
    <circle class="cls-1" cx="248.97" cy="82.69" r="2.61"/>
    <path class="cls-1" d="M240.03,105.3c0-1.44-1.17-2.61-2.61-2.61s-2.61,1.17-2.61,2.61,1.17,2.61,2.61,2.61,2.61-1.17,2.61-2.61Z"/>
    <path class="cls-1" d="M233.88,25.79c-1.4,0-2.53-1.14-2.53-2.53s1.14-2.53,2.53-2.53,2.53,1.13,2.53,2.53-1.13,2.53-2.53,2.53Z"/>
    <path class="cls-1" d="M248.97,14.58c-1.4,0-2.53-1.13-2.53-2.53s1.13-2.53,2.53-2.53,2.53,1.14,2.53,2.53-1.14,2.53-2.53,2.53Z"/>
    <path class="cls-1" d="M314.65,0v37.74h-45.3v101.17h-11.98l-7.19-6.62v-45.14c1.97-.53,3.42-2.33,3.42-4.47,0-2.56-2.08-4.64-4.64-4.64s-4.64,2.08-4.64,4.64c0,2.14,1.45,3.94,3.42,4.47v46.2l8.67,7.99h12.93v8.53h-19.17l-11.55-11.37v-28.74c1.97-.53,3.42-2.33,3.42-4.47,0-2.56-2.08-4.64-4.64-4.64s-4.64,2.08-4.64,4.64c0,2.14,1.46,3.94,3.42,4.47v29.75l12.99,12.78h20.16v15.41h-52.85V37.75h-45.3v-13.48h58.23c.46,2.03,2.27,3.54,4.44,3.54,2.51,0,4.55-2.04,4.55-4.56s-2.04-4.55-4.55-4.55c-2.16,0-3.98,1.52-4.44,3.54h-58.23v-9.19h73.33c.46,2.02,2.27,3.54,4.43,3.54,2.51,0,4.56-2.04,4.56-4.55s-2.04-4.56-4.56-4.56c-2.16,0-3.97,1.52-4.43,3.54h-73.33V0h143.44Z"/>
  </g>
  <path class="cls-1" d="M122.41,80.08c1.44,0,2.61,1.17,2.61,2.61s-1.17,2.61-2.61,2.61-2.61-1.17-2.61-2.61,1.17-2.61,2.61-2.61Z"/>
  <circle class="cls-1" cx="144.62" cy="105.24" r="2.61"/>
  <g>
    <path class="cls-1" d="M159.08,22.23v-9.18s-13.68,0-13.68,0l-10.85,9.73v112.72l-14.08,13.7c.26.58.41,1.22.41,1.89,0,2.56-2.08,4.64-4.64,4.64s-4.64-2.08-4.64-4.64,2.08-4.64,4.64-4.64c1.15,0,2.2.42,3.01,1.11l13.28-12.92V21.88l12.1-10.85h14.46V0s-35.66,0-35.66,0v78.17c2.07.46,3.62,2.31,3.62,4.52,0,2.56-2.08,4.64-4.64,4.64s-4.64-2.08-4.64-4.64c0-2.21,1.55-4.06,3.62-4.52V0h-14.08v114.37c0,13.59-11.11,21.22-23.18,22.51-1.53.17-3.06.36-4.6.31-1.53.05-3.06-.14-4.58-.31-12.08-1.29-23.18-8.92-23.18-22.51V0H0l.02,113.38c0,6.38,1.04,12.74,3.33,18.7,10.15,26.42,40.39,40.31,71.62,41.64v.02c1.14.04,4.19.08,4.58.08s3.45-.05,4.6-.08v-.02c31.23-1.33,61.46-15.21,71.6-41.64,2.3-5.96,3.34-12.32,3.34-18.7V24.26s-6.99,0-6.99,0l-6.46,6.63v69.83c2.07.47,3.62,2.31,3.62,4.52,0,2.56-2.08,4.64-4.64,4.64s-4.64-2.08-4.64-4.64c0-2.21,1.56-4.06,3.63-4.52V30.07s7.62-7.84,7.62-7.84h7.86Z"/>
    <circle class="cls-1" cx="116.25" cy="151.09" r="2.61"/>
  </g>
  <g>
    <path class="cls-1" d="M454.16,0l-39.63,67.95L374.9.17V0h-45.84v139.05h7.44l7.39-7.04v-48.42c-2.06-.44-3.61-2.27-3.61-4.45,0-2.51,2.04-4.55,4.55-4.55s4.55,2.04,4.55,4.55c0,2.14-1.48,3.93-3.47,4.42v49.32l-8.6,8.19h-8.25v9.07l14.57-.16,11.78-11.51V16.48c-2.03-.46-3.54-2.27-3.54-4.44,0-2.51,2.04-4.55,4.55-4.55s4.55,2.04,4.55,4.55c0,2.16-1.52,3.97-3.54,4.44v122.85l-12.97,12.67-15.4.17v16.07h42.06v-99.37l36.13,61.09h14.56l36.13-61.09v99.37h42.06V0h-45.84Z"/>
    <path class="cls-1" d="M347.36,79.15c0-1.4-1.14-2.53-2.53-2.53s-2.53,1.14-2.53,2.53,1.14,2.53,2.53,2.53,2.53-1.14,2.53-2.53Z"/>
    <path class="cls-1" d="M358.95,12.05c0-1.4-1.14-2.53-2.53-2.53s-2.53,1.14-2.53,2.53,1.14,2.53,2.53,2.53,2.53-1.14,2.53-2.53Z"/>
  </g>
</svg>