<?xml version="1.0" encoding="UTF-8"?>
<svg id="LOGO_CIRCUITOS" data-name="LOGO CIRCUITOS" xmlns="http://www.w3.org/2000/svg" viewBox="0 0 500 249.18">
  <defs>
    <style>
      .cls-1 {
        fill: #219492;
      }

      .cls-2 {
        fill: #611233;
      }
    </style>
  </defs>
  <g>
    <circle class="cls-2" cx="248.97" cy="82.69" r="2.61"/>
    <path class="cls-2" d="M240.03,105.3c0-1.44-1.17-2.61-2.61-2.61s-2.61,1.17-2.61,2.61,1.17,2.61,2.61,2.61,2.61-1.17,2.61-2.61Z"/>
    <path class="cls-2" d="M233.88,25.79c-1.4,0-2.53-1.14-2.53-2.53s1.14-2.53,2.53-2.53,2.53,1.13,2.53,2.53-1.13,2.53-2.53,2.53Z"/>
    <path class="cls-2" d="M248.97,14.58c-1.4,0-2.53-1.13-2.53-2.53s1.13-2.53,2.53-2.53,2.53,1.14,2.53,2.53-1.14,2.53-2.53,2.53Z"/>
    <path class="cls-2" d="M314.65,0v37.74h-45.3v101.17h-11.98l-7.19-6.62v-45.14c1.97-.53,3.42-2.33,3.42-4.47,0-2.56-2.08-4.64-4.64-4.64s-4.64,2.08-4.64,4.64c0,2.14,1.45,3.94,3.42,4.47v46.2l8.67,7.99h12.93v8.53h-19.17l-11.55-11.37v-28.74c1.97-.53,3.42-2.33,3.42-4.47,0-2.56-2.08-4.64-4.64-4.64s-4.64,2.08-4.64,4.64c0,2.14,1.46,3.94,3.42,4.47v29.75l12.99,12.78h20.16v15.41h-52.85V37.75h-45.3v-13.48h58.23c.46,2.03,2.27,3.54,4.44,3.54,2.51,0,4.55-2.04,4.55-4.56s-2.04-4.55-4.55-4.55c-2.16,0-3.98,1.52-4.44,3.54h-58.23v-9.19h73.33c.46,2.02,2.27,3.54,4.43,3.54,2.51,0,4.56-2.04,4.56-4.55s-2.04-4.56-4.56-4.56c-2.16,0-3.97,1.52-4.43,3.54h-73.33V0h143.44Z"/>
  </g>
  <path class="cls-2" d="M122.41,80.08c1.44,0,2.61,1.17,2.61,2.61s-1.17,2.61-2.61,2.61-2.61-1.17-2.61-2.61,1.17-2.61,2.61-2.61Z"/>
  <circle class="cls-2" cx="144.62" cy="105.24" r="2.61"/>
  <rect class="cls-2" x="0" y="192.29" width="500" height="7.85"/>
  <g>
    <path class="cls-1" d="M0,223.61h5.43v9.54c0,1.41.03,2.42.11,3.03.06.61.19,1.12.36,1.53.21.5.57.89,1.09,1.15.52.26,1.14.39,1.88.39s1.36-.13,1.89-.39c.5-.27.87-.65,1.09-1.15.17-.4.29-.92.36-1.53.07-.62.11-1.63.11-3.03v-9.54h5.41v10.37c0,2.14-.12,3.74-.38,4.76-.27,1.02-.7,1.89-1.34,2.62-.69.79-1.62,1.38-2.8,1.78-1.19.4-2.64.59-4.33.59s-3.14-.19-4.32-.59c-1.18-.4-2.12-.99-2.81-1.78-.63-.73-1.06-1.6-1.33-2.62C.14,237.72,0,236.13,0,233.98v-10.37Z"/>
    <path class="cls-1" d="M21.5,243.22v-13.53h4.43v2.76c.65-1.09,1.39-1.9,2.24-2.41s1.85-.76,3.03-.76c.88,0,1.68.14,2.37.42.69.28,1.26.69,1.7,1.22.36.45.62,1.01.77,1.66.15.66.23,1.63.23,2.92v7.73h-4.84v-7.23c0-1.07-.18-1.86-.54-2.36-.36-.48-.94-.73-1.72-.73-1.01,0-1.75.36-2.21,1.09-.46.74-.7,1.92-.7,3.56v5.67h-4.76Z"/>
    <path class="cls-1" d="M39.57,225.46c0-.73.26-1.33.78-1.84.53-.52,1.16-.77,1.89-.77s1.4.25,1.91.76c.52.49.77,1.11.77,1.85s-.26,1.37-.78,1.88c-.52.51-1.16.78-1.9.78s-1.36-.27-1.88-.79c-.52-.52-.8-1.15-.8-1.87M39.83,229.69h4.84v13.53h-4.84v-13.53Z"/>
    <path class="cls-1" d="M52.51,243.22l-6.18-13.53h5.18l2.34,5.97c.03.06.06.14.09.23.3.78.49,1.42.56,1.89.07-.44.24-1.02.53-1.76.06-.16.1-.28.14-.37l2.33-5.97h5.03l-6.22,13.53h-3.8Z"/>
    <path class="cls-1" d="M78.33,237.41h-10.45c0,1.04.28,1.84.82,2.42.53.56,1.29.85,2.28.85.73,0,1.35-.14,1.86-.4.51-.28.89-.68,1.15-1.21l3.63,1.44c-.44,1.05-1.21,1.83-2.31,2.41-1.1.56-2.47.83-4.07.83-2.39,0-4.31-.65-5.75-1.95-1.45-1.31-2.17-3.03-2.17-5.17s.73-3.86,2.17-5.26c1.44-1.39,3.28-2.09,5.49-2.09s4.06.7,5.38,2.12c1.32,1.41,1.97,3.34,1.97,5.8v.22ZM73.58,234.74c-.09-.79-.4-1.41-.89-1.87-.51-.47-1.13-.71-1.87-.71-.79,0-1.43.22-1.89.64-.47.43-.78,1.07-.93,1.94h5.58Z"/>
    <path class="cls-1" d="M81.13,243.22v-13.53h4.58v3.19c.47-1.16,1.11-2.03,1.93-2.61.8-.57,1.79-.86,2.94-.86.2,0,.4,0,.59.02.2.02.39.03.59.05l-.44,4.33c-.3-.1-.58-.17-.87-.21-.28-.05-.55-.07-.81-.07-1.18,0-2.08.35-2.73,1.07-.63.71-.96,1.71-.96,3.02v5.59h-4.82Z"/>
    <path class="cls-1" d="M92.27,242.1l.99-3.65c.7.62,1.47,1.08,2.32,1.41.85.34,1.7.5,2.56.5.6,0,1.06-.1,1.38-.29.32-.19.48-.48.48-.84,0-.6-.64-1.04-1.91-1.34-.41-.1-.76-.19-1-.25-1.45-.4-2.51-.92-3.16-1.55-.65-.64-.98-1.46-.98-2.48,0-1.31.51-2.36,1.5-3.14,1.01-.78,2.36-1.18,4.07-1.18.88,0,1.78.1,2.69.3.91.21,1.84.52,2.8.94l-1.01,3.29c-.65-.43-1.29-.76-1.95-.99-.68-.22-1.33-.34-1.99-.34-.55,0-.97.1-1.25.27-.28.17-.42.41-.42.73,0,.49.64.89,1.9,1.22.29.09.52.14.65.18,1.68.47,2.87,1.03,3.51,1.66.67.64.99,1.5.99,2.6,0,1.38-.54,2.49-1.62,3.35-1.07.85-2.5,1.27-4.27,1.27-1.21,0-2.32-.14-3.35-.41-1.04-.27-2-.68-2.91-1.23"/>
    <path class="cls-1" d="M106.92,225.46c0-.73.26-1.33.78-1.84.53-.52,1.15-.77,1.89-.77s1.4.25,1.9.76c.52.49.78,1.11.78,1.85s-.26,1.37-.78,1.88c-.52.51-1.16.78-1.9.78s-1.36-.27-1.89-.79c-.52-.52-.78-1.15-.78-1.87M107.17,229.69h4.83v13.53h-4.83v-13.53Z"/>
    <path class="cls-1" d="M130.51,222.46v20.76h-4.45v-2.19c-.63.9-1.32,1.59-2.09,2.05-.77.45-1.62.67-2.57.67-1.93,0-3.47-.65-4.61-1.96-1.15-1.32-1.72-3.09-1.72-5.31s.57-3.89,1.71-5.21c1.15-1.34,2.63-1.99,4.46-1.99,1.16,0,2.1.2,2.84.61.73.42,1.38,1.09,1.95,2.06-.05-.33-.09-.69-.13-1.09-.03-.4-.05-.84-.05-1.31v-7.08h4.65ZM126.21,236.46c0-1.05-.28-1.88-.84-2.49-.58-.61-1.35-.91-2.33-.91s-1.75.3-2.31.91c-.57.61-.85,1.45-.85,2.49s.27,1.89.84,2.5c.57.6,1.34.89,2.32.89s1.75-.3,2.33-.91c.56-.61.84-1.43.84-2.49"/>
    <path class="cls-1" d="M148.82,229.69v13.53h-4.46v-2.2c-.63.95-1.34,1.64-2.14,2.07-.79.43-1.72.65-2.8.65-1.82,0-3.29-.65-4.38-1.97-1.09-1.31-1.65-3.09-1.65-5.3s.58-3.95,1.72-5.25c1.15-1.3,2.7-1.95,4.62-1.95,1.04,0,1.93.21,2.69.65.74.43,1.38,1.1,1.91,2v-2.22h4.48ZM144.56,236.44c0-1.05-.29-1.89-.86-2.5-.57-.61-1.35-.92-2.34-.92s-1.76.3-2.33.91c-.57.63-.85,1.46-.85,2.52s.29,1.88.85,2.5c.58.6,1.35.9,2.32.9s1.77-.3,2.34-.9c.57-.62.86-1.45.86-2.5"/>
    <path class="cls-1" d="M167.29,222.46v20.76h-4.46v-2.19c-.62.9-1.31,1.59-2.09,2.05-.76.45-1.62.67-2.57.67-1.94,0-3.48-.65-4.62-1.96-1.14-1.32-1.72-3.09-1.72-5.31s.58-3.89,1.72-5.21c1.13-1.34,2.62-1.99,4.46-1.99,1.16,0,2.1.2,2.84.61.73.42,1.38,1.09,1.95,2.06-.05-.33-.09-.69-.13-1.09-.03-.4-.04-.84-.04-1.31v-7.08h4.65ZM162.99,236.46c0-1.05-.28-1.88-.85-2.49-.56-.61-1.33-.91-2.32-.91s-1.75.3-2.31.91c-.57.61-.84,1.45-.84,2.49s.28,1.89.83,2.5c.56.6,1.33.89,2.32.89s1.76-.3,2.32-.91c.57-.61.85-1.43.85-2.49"/>
    <polygon class="cls-1" points="182.81 243.22 182.81 228.24 178.35 228.24 178.35 223.61 192.69 223.61 192.69 228.24 188.25 228.24 188.25 243.22 182.81 243.22"/>
    <path class="cls-1" d="M206.99,237.41h-10.45c0,1.04.28,1.84.82,2.42.54.56,1.3.85,2.28.85.74,0,1.36-.14,1.86-.4.51-.28.89-.68,1.16-1.21l3.63,1.44c-.44,1.05-1.21,1.83-2.32,2.41-1.1.56-2.46.83-4.06.83-2.39,0-4.31-.65-5.76-1.95-1.44-1.31-2.17-3.03-2.17-5.17s.73-3.86,2.17-5.26c1.45-1.39,3.28-2.09,5.49-2.09s4.07.7,5.39,2.12c1.32,1.41,1.96,3.34,1.96,5.8v.22ZM202.24,234.74c-.1-.79-.39-1.41-.9-1.87-.51-.47-1.13-.71-1.86-.71-.78,0-1.41.22-1.89.64-.46.43-.78,1.07-.93,1.94h5.59Z"/>
    <path class="cls-1" d="M219.62,234.12c-.48-.4-.93-.7-1.36-.88-.44-.19-.9-.29-1.38-.29-.96,0-1.72.32-2.28.94-.57.62-.85,1.47-.85,2.54s.3,1.86.88,2.48c.59.62,1.39.92,2.37.92.5,0,.96-.09,1.38-.28.43-.2.84-.49,1.23-.89v4.13c-.59.33-1.16.56-1.74.72-.58.14-1.18.22-1.79.22-2.1,0-3.83-.66-5.14-1.99-1.3-1.34-1.96-3.09-1.96-5.27s.67-3.85,2.01-5.19c1.33-1.34,3.05-2.02,5.14-2.02.69,0,1.33.06,1.89.2.56.13,1.09.34,1.59.64v4.01Z"/>
    <path class="cls-1" d="M222.6,243.22v-13.53h4.43v2.76c.65-1.09,1.39-1.9,2.23-2.41.85-.51,1.85-.76,3.03-.76.9,0,1.68.14,2.37.42.7.28,1.26.69,1.69,1.22.36.45.63,1.01.78,1.66.15.66.23,1.63.23,2.92v7.73h-4.84v-7.23c0-1.07-.18-1.86-.53-2.36-.37-.48-.94-.73-1.73-.73-1.01,0-1.74.36-2.21,1.09-.45.74-.7,1.92-.7,3.56v5.67h-4.75Z"/>
    <path class="cls-1" d="M255.35,236.5c0,.98-.19,1.9-.57,2.77-.39.88-.95,1.67-1.68,2.37-.75.7-1.58,1.22-2.5,1.58-.91.35-1.89.53-2.92.53s-2.03-.18-2.96-.53c-.92-.36-1.75-.88-2.47-1.58-.73-.68-1.28-1.46-1.65-2.34-.39-.88-.57-1.81-.57-2.8s.19-1.92.56-2.8c.38-.87.93-1.67,1.67-2.36.71-.69,1.53-1.2,2.45-1.55.93-.34,1.92-.52,2.98-.52s2.04.18,2.96.52c.91.35,1.73.86,2.46,1.55.74.71,1.29,1.5,1.68,2.37.39.88.57,1.81.57,2.79M250.54,236.5c0-1.01-.27-1.79-.79-2.38-.51-.57-1.21-.86-2.08-.86s-1.58.3-2.1.86c-.51.59-.76,1.37-.76,2.38s.24,1.8.76,2.36c.51.58,1.2.87,2.1.87s1.58-.29,2.09-.87c.51-.56.77-1.36.77-2.36"/>
    <rect class="cls-1" x="258.28" y="222.46" width="4.84" height="20.76"/>
    <path class="cls-1" d="M281.39,236.5c0,.97-.2,1.9-.58,2.77-.39.88-.94,1.67-1.68,2.37-.74.7-1.57,1.22-2.49,1.58-.91.35-1.88.53-2.92.53s-2.03-.18-2.97-.53c-.91-.36-1.73-.88-2.46-1.58-.72-.68-1.28-1.46-1.65-2.34-.38-.88-.57-1.81-.57-2.8s.19-1.92.57-2.8c.38-.87.94-1.67,1.66-2.36.72-.69,1.53-1.2,2.46-1.55.91-.34,1.9-.52,2.97-.52s2.04.18,2.97.52c.91.35,1.72.86,2.45,1.55.74.71,1.31,1.5,1.68,2.37.38.88.58,1.8.58,2.79M276.58,236.5c0-1.01-.26-1.79-.78-2.38-.51-.57-1.21-.86-2.08-.86s-1.59.3-2.1.86c-.51.59-.77,1.37-.77,2.38s.26,1.79.75,2.36c.52.58,1.21.87,2.11.87s1.57-.29,2.09-.87c.52-.57.77-1.36.77-2.36M277.64,223.16l-4.2,4.69h-2.09l2.47-4.69h3.81Z"/>
    <path class="cls-1" d="M298.89,229.69v13.51c0,2.04-.63,3.55-1.9,4.52-1.26.97-3.22,1.46-5.87,1.46-2.13,0-3.82-.38-5.04-1.16-1.21-.79-1.85-1.88-1.93-3.29h5.02c.08.41.31.74.71.96.41.24.95.35,1.61.35,1.03,0,1.76-.24,2.15-.73.4-.5.61-1.53.61-3.11v-1.23c-.51.85-1.16,1.48-1.95,1.9-.77.41-1.72.62-2.81.62-1.81,0-3.26-.65-4.36-1.94-1.1-1.29-1.64-3.01-1.64-5.16s.58-3.9,1.72-5.18c1.14-1.28,2.69-1.92,4.62-1.92,1.03,0,1.9.2,2.66.62.74.42,1.39,1.07,1.94,1.97v-2.17h4.47ZM294.64,236.42c0-1.04-.29-1.87-.85-2.47-.57-.59-1.35-.89-2.35-.89s-1.79.3-2.36.89c-.59.6-.86,1.43-.86,2.47s.27,1.86.86,2.46c.57.61,1.37.91,2.36.91s1.78-.3,2.34-.91c.58-.59.87-1.42.87-2.46"/>
    <path class="cls-1" d="M302.46,225.46c0-.73.26-1.33.78-1.84.53-.52,1.16-.77,1.89-.77s1.4.25,1.91.76c.53.49.77,1.11.77,1.85s-.26,1.37-.78,1.88c-.52.51-1.14.78-1.9.78s-1.35-.27-1.88-.79c-.53-.52-.79-1.15-.79-1.87M302.72,229.69h4.84v13.53h-4.84v-13.53Z"/>
    <path class="cls-1" d="M321.13,234.12c-.48-.4-.93-.7-1.36-.88-.43-.19-.89-.29-1.37-.29-.95,0-1.72.32-2.28.94-.57.62-.86,1.47-.86,2.54s.31,1.86.88,2.48c.59.62,1.38.92,2.38.92.5,0,.95-.09,1.39-.28.42-.2.82-.49,1.22-.89v4.13c-.59.33-1.16.56-1.75.72-.58.14-1.18.22-1.79.22-2.11,0-3.82-.66-5.13-1.99-1.31-1.34-1.97-3.09-1.97-5.27s.67-3.85,2.01-5.19c1.33-1.34,3.06-2.02,5.15-2.02.7,0,1.32.06,1.89.2.56.13,1.1.34,1.59.64v4.01Z"/>
    <path class="cls-1" d="M338.82,229.69v13.53h-4.46v-2.2c-.63.95-1.33,1.64-2.14,2.07-.79.43-1.71.65-2.79.65-1.83,0-3.29-.65-4.39-1.97-1.1-1.31-1.65-3.09-1.65-5.3s.58-3.95,1.72-5.25c1.15-1.3,2.68-1.95,4.63-1.95,1.03,0,1.91.21,2.67.65.74.43,1.38,1.1,1.91,2v-2.22h4.49ZM334.55,236.44c0-1.05-.28-1.89-.85-2.5-.57-.61-1.35-.92-2.34-.92s-1.76.3-2.32.91c-.57.63-.85,1.46-.85,2.52s.29,1.88.86,2.5c.57.6,1.34.9,2.32.9s1.77-.3,2.34-.9c.57-.62.85-1.45.85-2.5"/>
    <path class="cls-1" d="M366.01,222.46v20.76h-4.46v-2.19c-.63.9-1.32,1.59-2.08,2.05-.78.45-1.63.67-2.57.67-1.93,0-3.48-.65-4.62-1.96-1.15-1.32-1.72-3.09-1.72-5.31s.57-3.89,1.72-5.21c1.13-1.34,2.61-1.99,4.46-1.99,1.16,0,2.11.2,2.83.61.74.42,1.38,1.09,1.95,2.06-.05-.33-.09-.69-.11-1.09-.03-.4-.05-.84-.05-1.31v-7.08h4.66ZM361.72,236.46c0-1.05-.29-1.88-.86-2.49-.56-.61-1.33-.91-2.32-.91s-1.75.3-2.31.91c-.57.61-.84,1.45-.84,2.49s.28,1.89.83,2.5c.57.6,1.33.89,2.32.89s1.76-.3,2.32-.91c.57-.61.86-1.43.86-2.49"/>
    <path class="cls-1" d="M383.84,237.41h-10.45c0,1.04.28,1.84.81,2.42.54.56,1.29.85,2.29.85.74,0,1.35-.14,1.86-.4.51-.28.88-.68,1.14-1.21l3.64,1.44c-.44,1.05-1.21,1.83-2.31,2.41-1.1.56-2.45.83-4.06.83-2.41,0-4.31-.65-5.77-1.95-1.45-1.31-2.17-3.03-2.17-5.17s.73-3.86,2.17-5.26c1.45-1.39,3.28-2.09,5.49-2.09s4.07.7,5.39,2.12c1.32,1.41,1.96,3.34,1.96,5.8v.22ZM379.1,234.74c-.1-.79-.4-1.41-.89-1.87-.51-.47-1.13-.71-1.87-.71-.79,0-1.42.22-1.88.64-.47.43-.79,1.07-.94,1.94h5.59Z"/>
    <path class="cls-1" d="M418.48,243.22h-5.06l-1.17-8.47c-.08-.6-.17-1.27-.22-2.01-.08-.73-.13-1.53-.19-2.4-.13.83-.37,1.87-.74,3.11-.09.27-.15.45-.18.58l-2.71,9.19h-3.63l-2.7-9.19c-.04-.12-.09-.31-.17-.58-.39-1.24-.62-2.27-.74-3.09-.05.74-.13,1.47-.2,2.2-.07.73-.17,1.45-.26,2.18l-1.17,8.47h-5.04l3.08-19.6h5.37l3.01,10.11c.02.08.07.18.11.34.28.91.46,1.68.53,2.32.04-.35.11-.73.2-1.15.1-.43.24-.95.41-1.54l3.04-10.08h5.38l3.06,19.6Z"/>
    <path class="cls-1" d="M435.66,236.5c0,.98-.2,1.9-.59,2.77-.38.88-.94,1.67-1.68,2.37-.74.7-1.57,1.22-2.49,1.58-.92.35-1.89.53-2.93.53s-2.03-.18-2.96-.53c-.91-.36-1.73-.88-2.46-1.58-.72-.68-1.27-1.46-1.67-2.34-.37-.88-.56-1.81-.56-2.8s.19-1.92.56-2.8c.38-.87.94-1.67,1.67-2.36.72-.69,1.53-1.2,2.45-1.55.92-.34,1.91-.52,2.97-.52s2.05.18,2.96.52c.92.35,1.74.86,2.46,1.55.75.71,1.31,1.5,1.69,2.37.39.88.57,1.81.57,2.79M430.84,236.5c0-1.01-.25-1.79-.77-2.38-.53-.57-1.21-.86-2.09-.86s-1.58.3-2.09.86c-.51.59-.77,1.37-.77,2.38s.26,1.8.76,2.36c.5.58,1.21.87,2.1.87s1.58-.29,2.1-.87c.52-.56.76-1.36.76-2.36"/>
    <path class="cls-1" d="M438.48,243.22v-13.53h4.56v3.19c.47-1.16,1.11-2.03,1.93-2.61.81-.57,1.79-.86,2.95-.86.2,0,.39,0,.58.02.21.02.4.03.6.05l-.45,4.33c-.29-.1-.58-.17-.86-.21-.28-.05-.55-.07-.81-.07-1.19,0-2.09.35-2.73,1.07-.65.71-.97,1.71-.97,3.02v5.59h-4.81Z"/>
    <path class="cls-1" d="M465.15,237.41h-10.46c.02,1.04.29,1.84.81,2.42.55.56,1.31.85,2.28.85.74,0,1.36-.14,1.87-.4.51-.28.88-.68,1.15-1.21l3.63,1.44c-.43,1.05-1.2,1.83-2.31,2.41-1.09.56-2.47.83-4.06.83-2.39,0-4.31-.65-5.77-1.95-1.45-1.31-2.16-3.03-2.16-5.17s.71-3.86,2.16-5.26c1.45-1.39,3.28-2.09,5.49-2.09s4.07.7,5.39,2.12c1.32,1.41,1.97,3.34,1.97,5.8v.22ZM460.39,234.74c-.1-.79-.39-1.41-.89-1.87-.51-.47-1.14-.71-1.88-.71-.79,0-1.42.22-1.88.64-.47.43-.77,1.07-.94,1.94h5.59Z"/>
    <rect class="cls-1" x="468.05" y="222.46" width="4.84" height="20.76"/>
    <path class="cls-1" d="M476.49,225.46c0-.73.26-1.33.78-1.84.53-.52,1.14-.77,1.89-.77s1.4.25,1.91.76c.52.49.77,1.11.77,1.85s-.26,1.37-.78,1.88c-.52.51-1.16.78-1.9.78s-1.35-.27-1.87-.79c-.53-.52-.8-1.15-.8-1.87M476.75,229.69h4.84v13.53h-4.84v-13.53Z"/>
    <path class="cls-1" d="M500,229.69v13.53h-4.45v-2.2c-.63.95-1.35,1.64-2.14,2.07-.79.43-1.71.65-2.79.65-1.83,0-3.3-.65-4.4-1.97-1.09-1.31-1.64-3.09-1.64-5.3s.58-3.95,1.73-5.25c1.15-1.3,2.69-1.95,4.61-1.95,1.03,0,1.93.21,2.68.65.74.43,1.38,1.1,1.92,2v-2.22h4.48ZM495.74,236.44c0-1.05-.29-1.89-.86-2.5-.57-.61-1.35-.92-2.33-.92s-1.76.3-2.33.91c-.56.63-.85,1.46-.85,2.52s.29,1.88.85,2.5c.58.6,1.36.9,2.33.9s1.76-.3,2.33-.9c.57-.62.86-1.45.86-2.5"/>
  </g>
  <g>
    <path class="cls-2" d="M159.08,22.23v-9.18s-13.68,0-13.68,0l-10.85,9.73v112.72l-14.08,13.7c.26.58.41,1.22.41,1.89,0,2.56-2.08,4.64-4.64,4.64s-4.64-2.08-4.64-4.64,2.08-4.64,4.64-4.64c1.15,0,2.2.42,3.01,1.11l13.28-12.92V21.88l12.1-10.85h14.46V0s-35.66,0-35.66,0v78.17c2.07.46,3.62,2.31,3.62,4.52,0,2.56-2.08,4.64-4.64,4.64s-4.64-2.08-4.64-4.64c0-2.21,1.55-4.06,3.62-4.52V0h-14.08v114.37c0,13.59-11.11,21.22-23.18,22.51-1.53.17-3.06.36-4.6.31-1.53.05-3.06-.14-4.58-.31-12.08-1.29-23.18-8.92-23.18-22.51V0H0l.02,113.38c0,6.38,1.04,12.74,3.33,18.7,10.15,26.42,40.39,40.31,71.62,41.64v.02c1.14.04,4.19.08,4.58.08s3.45-.05,4.6-.08v-.02c31.23-1.33,61.46-15.21,71.6-41.64,2.3-5.96,3.34-12.32,3.34-18.7V24.26s-6.99,0-6.99,0l-6.46,6.63v69.83c2.07.47,3.62,2.31,3.62,4.52,0,2.56-2.08,4.64-4.64,4.64s-4.64-2.08-4.64-4.64c0-2.21,1.56-4.06,3.63-4.52V30.07s7.62-7.84,7.62-7.84h7.86Z"/>
    <circle class="cls-2" cx="116.25" cy="151.09" r="2.61"/>
  </g>
  <g>
    <path class="cls-2" d="M454.16,0l-39.63,67.95L374.9.17V0h-45.84v139.05h7.44l7.39-7.04v-48.42c-2.06-.44-3.61-2.27-3.61-4.45,0-2.51,2.04-4.55,4.55-4.55s4.55,2.04,4.55,4.55c0,2.14-1.48,3.93-3.47,4.42v49.32l-8.6,8.19h-8.25v9.07l14.57-.16,11.78-11.51V16.48c-2.03-.46-3.54-2.27-3.54-4.44,0-2.51,2.04-4.55,4.55-4.55s4.55,2.04,4.55,4.55c0,2.16-1.52,3.97-3.54,4.44v122.85l-12.97,12.67-15.4.17v16.07h42.06v-99.37l36.13,61.09h14.56l36.13-61.09v99.37h42.06V0h-45.84Z"/>
    <path class="cls-2" d="M347.36,79.15c0-1.4-1.14-2.53-2.53-2.53s-2.53,1.14-2.53,2.53,1.14,2.53,2.53,2.53,2.53-1.14,2.53-2.53Z"/>
    <path class="cls-2" d="M358.95,12.05c0-1.4-1.14-2.53-2.53-2.53s-2.53,1.14-2.53,2.53,1.14,2.53,2.53,2.53,2.53-1.14,2.53-2.53Z"/>
  </g>
</svg>